<svg width="23" height="28" viewBox="0 0 23 28" fill="none" xmlns="http://www.w3.org/2000/svg">
<path fill-rule="evenodd" clip-rule="evenodd" d="M13.6045 1.5123e-06C15.3581 9.94861e-07 16.775 -0.00205446 17.8867 0.147462C19.0267 0.300845 19.9957 0.629961 20.7656 1.40039L20.9053 1.54688C21.5771 2.29209 21.8758 3.21115 22.0195 4.28027C22.169 5.39211 22.167 6.80877 22.167 8.5625C22.1668 9.11442 21.7189 9.56215 21.167 9.5625C20.6148 9.5625 20.1672 9.11464 20.167 8.5625C20.167 6.75227 20.1645 5.49444 20.0371 4.54688C19.9136 3.62847 19.689 3.15182 19.3525 2.81543L19.3516 2.81445C19.0152 2.47773 18.5386 2.25349 17.6201 2.12988C16.6726 2.00246 15.4146 2 13.6045 2H8.5625C6.75219 2 5.49446 2.00248 4.54688 2.12988C3.62802 2.25346 3.15185 2.47769 2.81543 2.81445L2.81445 2.81543C2.47769 3.15185 2.25346 3.62802 2.12988 4.54688C2.00248 5.49446 2 6.75219 2 8.5625V18.4482C2.43151 18.1606 2.90911 17.944 3.41406 17.8086L3.41504 17.8076C4.05515 17.6368 4.80516 17.6455 5.91309 17.6455H20.167V13.6045C20.167 13.0522 20.6147 12.6045 21.167 12.6045C21.719 12.6048 22.167 13.0524 22.167 13.6045V18.6455C22.167 20.3991 22.169 21.816 22.0195 22.9277C21.8662 24.0678 21.5361 25.0366 20.7656 25.8066C19.9956 26.5775 19.027 26.9071 17.8867 27.0605C16.775 27.2101 15.3581 27.208 13.6045 27.208C13.0523 27.208 12.6047 26.7601 12.6045 26.208C12.6047 25.6559 13.0523 25.208 13.6045 25.208C15.4146 25.208 16.6726 25.2065 17.6201 25.0791C18.5387 24.9555 19.0152 24.7303 19.3516 24.3936L19.3525 24.3926C19.6891 24.0562 19.9136 23.5795 20.0371 22.6611C20.1396 21.8988 20.1605 20.9355 20.165 19.6455H5.91309C4.67791 19.6455 4.25431 19.6533 3.93164 19.7393C3.46034 19.8657 3.03056 20.1149 2.68555 20.46C2.27876 20.8669 2.11978 21.0245 2.02539 21.249C2.04372 21.7896 2.07517 22.2542 2.12988 22.6611C2.25345 23.5796 2.47783 24.0562 2.81445 24.3926L2.81543 24.3936C3.15184 24.7302 3.62824 24.9556 4.54688 25.0791C5.49444 25.2065 6.7523 25.208 8.5625 25.208C9.11453 25.2082 9.56233 25.656 9.5625 26.208C9.56233 26.76 9.11453 27.2078 8.5625 27.208C6.80874 27.208 5.39212 27.21 4.28027 27.0605C3.13997 26.9072 2.17052 26.5783 1.40039 25.8076V25.8066C0.630129 25.0367 0.300807 24.0676 0.147462 22.9277C-0.0020166 21.816 1.17689e-06 20.3991 1.42612e-06 18.6455V8.5625C1.42574e-06 6.80871 -0.00203195 5.39213 0.147462 4.28027C0.300856 3.13969 0.630271 2.17061 1.40137 1.40039C2.17145 0.629932 3.14013 0.300797 4.28027 0.147462C5.39213 -0.0020318 6.80871 1.5123e-06 8.5625 1.5123e-06H13.6045ZM12.3438 10.7139C12.8959 10.714 13.3438 11.1617 13.3438 11.7139C13.3434 12.2657 12.8957 12.7137 12.3438 12.7139H6.04199C5.48993 12.7139 5.04234 12.2659 5.04199 11.7139C5.04199 11.1616 5.48971 10.7139 6.04199 10.7139H12.3438ZM16.125 6.30176C16.677 6.30194 17.1248 6.74973 17.125 7.30176C17.1248 7.85379 16.677 8.30158 16.125 8.30176H6.04199C5.48982 8.30176 5.04217 7.85389 5.04199 7.30176C5.04217 6.74962 5.48982 6.30176 6.04199 6.30176H16.125Z" fill="#5E4AB3"/>
</svg>
