<svg width="24" height="24" viewBox="0 0 24 24" fill="none" xmlns="http://www.w3.org/2000/svg">
<path d="M12 15.3V18.6M23 12.2244V13.8975C23 18.1875 23 20.3336 21.7108 21.6668C20.4216 23 18.3481 23 14.2 23H9.8C5.6519 23 3.5773 23 2.2892 21.6668C1.0011 20.3336 1 18.1886 1 13.8975V12.2244C1 9.7065 1 8.4481 1.572 7.4053C2.1418 6.3614 3.1857 5.7146 5.2724 4.4188L7.4724 3.0537C9.6779 1.6842 10.7812 1 12 1C13.2188 1 14.321 1.6842 16.5276 3.0537L18.7276 4.4188C20.8143 5.7146 21.8582 6.3614 22.4291 7.4053" stroke="#5E4AB3" stroke-width="2" stroke-linecap="round"/>
</svg>
