<svg width="22" height="26" viewBox="0 0 22 26" fill="none" xmlns="http://www.w3.org/2000/svg">
<path d="M18.7 15.1667C19.5752 15.1667 20.4146 15.5091 21.0335 16.1186C21.6523 16.7281 22 17.5547 22 18.4167V19.1913C22 23.0663 17.369 26 11 26C4.631 26 0 23.2191 0 19.1913V18.4167C0 17.5547 0.347678 16.7281 0.966548 16.1186C1.58542 15.5091 2.42479 15.1667 3.3 15.1667H18.7ZM18.7 16.7917H3.3C2.89 16.7917 2.49469 16.942 2.19108 17.2134C1.88748 17.4847 1.69733 17.8577 1.6577 18.2596L1.65 18.4167V19.1913C1.65 22.0881 5.3779 24.375 11 24.375C16.4186 24.375 20.1905 22.0946 20.3456 19.3657L20.35 19.1913V18.4167C20.35 18.0129 20.1974 17.6236 19.9218 17.3246C19.6463 17.0255 19.2676 16.8383 18.8595 16.7992L18.7 16.7917ZM11 0C11.8667 -1.27195e-08 12.725 0.168127 13.5257 0.494783C14.3265 0.821439 15.054 1.30023 15.6669 1.90381C16.2798 2.50739 16.7659 3.22394 17.0976 4.01256C17.4293 4.80117 17.6 5.64641 17.6 6.5C17.6 7.35359 17.4293 8.19883 17.0976 8.98744C16.7659 9.77606 16.2798 10.4926 15.6669 11.0962C15.054 11.6998 14.3265 12.1786 13.5257 12.5052C12.725 12.8319 11.8667 13 11 13C9.24957 13 7.57084 12.3152 6.3331 11.0962C5.09536 9.87721 4.4 8.22391 4.4 6.5C4.4 4.77609 5.09536 3.12279 6.3331 1.90381C7.57084 0.684819 9.24957 2.56882e-08 11 0ZM11 1.625C9.68718 1.625 8.42813 2.13861 7.49982 3.05285C6.57152 3.96709 6.05 5.20707 6.05 6.5C6.05 7.79293 6.57152 9.03291 7.49982 9.94715C8.42813 10.8614 9.68718 11.375 11 11.375C12.3128 11.375 13.5719 10.8614 14.5002 9.94715C15.4285 9.03291 15.95 7.79293 15.95 6.5C15.95 5.20707 15.4285 3.96709 14.5002 3.05285C13.5719 2.13861 12.3128 1.625 11 1.625Z" fill="#5E4AB3"/>
</svg>
